<svg id="Capa_1" enable-background="new 0 0 512 512" height="512" viewBox="0 0 512 512" width="512" xmlns="http://www.w3.org/2000/svg"><g><path d="m396 378.376h-280c-8.284 0-15-6.716-15-15v-208.376c0-85.467 69.533-155 155-155s155 69.533 155 155v208.376c0 8.285-6.716 15-15 15z" fill="#ff7037"/><path d="m256 0v378.376h140c8.284 0 15-6.716 15-15v-208.376c0-85.467-69.533-155-155-155z" fill="#ff4a4a"/><path d="m381 370h-250v-213.625c0-68.976 55.294-125.976 124.269-126.373 69.259-.398 125.731 55.829 125.731 124.998z" fill="#0a789b"/><path d="m256 30v340h125v-215c0-68.925-56.075-125-125-125z" fill="#08475e"/><path d="m424.271 362.518-90.771-22.518-77.5 30-77.5-30h-22.5c-63.411 0-115 51.589-115 115v42c0 8.284 6.716 15 15 15h55l15-17 15 17h25.501l89.262-28 89.262 28h110.975c8.284 0 15-6.716 15-15v-42c0-37.868-18.402-71.516-46.729-92.482z" fill="#fff17d"/><g fill="#ffc178"><path d="m424.271 362.518-90.771-22.518-77.5 30v114.074l89.025 27.926h110.975c8.284 0 15-6.716 15-15v-42c0-37.868-18.402-71.516-46.729-92.482z"/><path d="m126 440c-8.284 0-15 6.716-15 15v57h30v-57c0-8.284-6.716-15-15-15z"/><path d="m126 440c-8.284 0-15 6.716-15 15v57h30v-57c0-8.284-6.716-15-15-15z"/></g><path d="m256 425c-42.734 0-77.5-34.766-77.5-77.5v-7.5h30v-39h95v39h30v7.5c0 42.734-34.766 77.5-77.5 77.5z" fill="#f2bb88"/><path d="m303.5 301h-47.5v124c42.734 0 77.5-34.766 77.5-77.5v-7.5h-30z" fill="#e3a76f"/><path d="m356 340h-22.5l-166.999 172h89.499 89.025l79.246-149.482c-19.107-14.143-42.728-22.518-68.271-22.518z" fill="#00da80"/><path d="m356 340h-22.5l-77.5 79.821v92.179h89.025l79.246-149.482c-19.107-14.143-42.728-22.518-68.271-22.518z" fill="#00b9a0"/><path d="m256 330c-57.897 0-105-47.103-105-105v-60c0-8.284 6.716-15 15-15h1.69c30.728 0 59.638-16.368 75.447-42.717 2.71-4.518 7.593-7.283 12.862-7.283s10.151 2.765 12.862 7.283c15.811 26.349 44.721 42.717 75.449 42.717h1.69c8.284 0 15 6.716 15 15v60c0 57.897-47.103 105-105 105z" fill="#f2d1a5"/><path d="m346 150h-1.69c-30.728 0-59.638-16.368-75.447-42.717-2.712-4.518-7.594-7.283-12.863-7.283v230c57.897 0 105-47.103 105-105v-60c0-8.284-6.716-15-15-15z" fill="#f2bb88"/></g></svg>